<svg fill="none" height="403" viewBox="0 0 770 403" width="770" xmlns="http://www.w3.org/2000/svg" xmlns:xlink="http://www.w3.org/1999/xlink"><linearGradient id="a" gradientUnits="userSpaceOnUse" x1="217.534" x2="217.534" y1="0" y2="202.128"><stop offset="0" stop-color="#d9f4ff"/><stop offset="1" stop-color="#9cd6ee"/></linearGradient><mask id="b" height="73" maskUnits="userSpaceOnUse" width="79" x="258" y="200"><path clip-rule="evenodd" d="m309.098 256.182c14.675-9.458 21.285-25.849 14.764-36.612-6.52-10.763-23.703-11.821-38.377-2.364-14.675 9.458-21.285 25.85-14.764 36.612 6.521 10.763 23.703 11.821 38.377 2.364z" fill="#fff" fill-rule="evenodd"/></mask><mask id="c" height="226" maskUnits="userSpaceOnUse" width="354" x="393" y="55"><rect fill="#fff" height="224.313" rx="9.24365" stroke="#fff" stroke-linecap="round" stroke-width="1.23249" width="352.491" x="393.793" y="55.7691"/></mask><rect fill="url(#a)" height="202.128" rx="101.064" transform="matrix(-1 0 0 1 435.082 157.843)" width="435.068"/><path d="m182.424 168.541c0-40.16 32.556-72.7163 72.716-72.7163h46.219c20.08 0 36.358 16.2783 36.358 36.3583s-16.278 36.358-36.358 36.358z" fill="#fff" stroke="#2d9cdb" stroke-linecap="round" stroke-width="1.09478"/><g clip-rule="evenodd" fill-rule="evenodd"><g fill="#17a3dc"><path d="m230.976 141.152c3.824 0 6.924-3.035 6.924-6.779s-3.1-6.779-6.924-6.779c-3.825 0-6.925 3.035-6.925 6.779s3.1 6.779 6.925 6.779z"/><path d="m261.643 141.152c3.825 0 6.925-3.035 6.925-6.779s-3.1-6.779-6.925-6.779c-3.824 0-6.924 3.035-6.924 6.779s3.1 6.779 6.924 6.779z"/><path d="m292.311 141.152c3.824 0 6.924-3.035 6.924-6.779s-3.1-6.779-6.924-6.779c-3.825 0-6.925 3.035-6.925 6.779s3.1 6.779 6.925 6.779z"/></g><path d="m240.918 334.408c21.212-11.247 44.178-16.252 66.175-16.252s51.568 5.495 74.812 19.912c23.244 14.418 37.952 78.023 37.952 78.023h-186.826s-29.649 14.105-45.629 6.404c-15.98-7.7-11.227-33.801-11.227-33.801s43.53-43.04 64.743-54.286z" fill="#85a9ff"/><path d="m312.449 364.507c1.702 0 3.082-1.38 3.082-3.082 0-1.701-1.38-3.081-3.082-3.081-1.701 0-3.081 1.38-3.081 3.081 0 1.702 1.38 3.082 3.081 3.082z" fill="#e5e9f3"/><path d="m312.449 389.156c1.702 0 3.082-1.379 3.082-3.081s-1.38-3.081-3.082-3.081c-1.701 0-3.081 1.379-3.081 3.081s1.38 3.081 3.081 3.081z" fill="#e5e9f3"/><path d="m233.029 416.092 28.105-30.797-7.344 30.607z" fill="#4873db" opacity=".218797"/><path d="m172.857 373.883s-10.042 23.887 0 36.704c10.043 12.817 27.754 17.628 41.021 2.516 13.267-15.113-2.586-50.001-2.586-50.001z" fill="#a5c0ff"/></g><path d="m305.672 355.263-2.052 60.829" stroke="#fff" stroke-linecap="round" stroke-width="1.23249"/><path clip-rule="evenodd" d="m289.933 315.095c-5.105 1.645-11.884 2.853-13.189 9.485-1.304 6.632 0 36.23 0 36.23l29.465-11.028 28.894 9.315s.847-35.98-3.151-40.748c-3.998-4.767-16.35-4.127-16.35-4.127s-20.564-.772-25.669.873z" fill="#18233d" fill-rule="evenodd"/><path clip-rule="evenodd" d="m296.592 270.836s1.057 24.338-7.558 49.837l16.656 35.205 22.168-31.669v-53.373z" fill="#ffb391" fill-rule="evenodd"/><path clip-rule="evenodd" d="m286.465 267.139s-21.535-19.687-6.947-37.656 43.575-10.86 43.575-10.86 10.633-2.364 16.174 3.091c5.541 5.456 8.031 17.944-3.91 27.101-11.941 9.156-48.892 18.324-48.892 18.324z" fill="#18233d" fill-rule="evenodd"/><path clip-rule="evenodd" d="m277.94 291.789c10.551 0 19.104-8.553 19.104-19.103 0-10.551-8.553-19.104-19.104-19.104-10.55 0-19.103 8.553-19.103 19.104 0 10.55 8.553 19.103 19.103 19.103z" fill="#18233d" fill-rule="evenodd"/><path clip-rule="evenodd" d="m309.098 256.182c14.675-9.458 21.285-25.849 14.764-36.612-6.52-10.763-23.703-11.821-38.377-2.364-14.675 9.458-21.285 25.85-14.764 36.612 6.521 10.763 23.703 11.821 38.377 2.364z" fill="#4a4ec6" fill-rule="evenodd"/><g mask="url(#b)" stroke="#fff" stroke-width="1.23249"><path d="m321.576 215.942s1.487 28.598-51.199 38.717"/><path d="m316.006 211.634s1.487 28.598-51.199 38.716"/></g><path d="m348.194 278.848c0 6.807-5.518 12.325-12.325 12.325s-12.325-5.518-12.325-12.325 5.518-12.325 12.325-12.325 12.325 5.518 12.325 12.325z" stroke="#fff" stroke-width="1.23249"/><path clip-rule="evenodd" d="m297.854 270.835c1.547 2.682 3.621 5.231 5.997 7.614 3.609 3.618 7.888 6.823 11.998 9.491 4.109 2.667 8.037 4.79 10.939 6.245.374.187.73.364 1.068.528v1.37c-.495-.238-1.037-.504-1.62-.796-2.931-1.47-6.901-3.615-11.058-6.313-4.155-2.697-8.509-5.955-12.199-9.655-2.602-2.608-4.887-5.45-6.538-8.484z" fill="#cf8b54" fill-rule="evenodd"/><path clip-rule="evenodd" d="m339.753 234.714s11.595 45.137-1.9 51.973c-13.495 6.837-38.566-13.367-41.553-16.22 0 0-9.677 3.402-13.266-2.221-3.59-5.623-3.11-12.325 7.548-12.325 10.657 0 33.779-12.073 36.128-27.23 8.155-3.63 13.043 6.023 13.043 6.023z" fill="#ffb391" fill-rule="evenodd"/><path d="m306.288 278.848c0 6.807-5.518 12.325-12.325 12.325s-12.325-5.518-12.325-12.325 5.518-12.325 12.325-12.325 12.325 5.518 12.325 12.325z" stroke="#fff" stroke-width="1.23249"/><path d="m284.718 263.441 8.627 1.233" stroke="#18233d" stroke-linecap="round" stroke-width="1.23249"/><path clip-rule="evenodd" d="m329.089 270.836h11.092s-.298 3.698-4.733 3.698-6.359-3.698-6.359-3.698z" fill="#d18462" fill-rule="evenodd"/><path clip-rule="evenodd" d="m171.46 383.821c0 14.403 3.226 32.45 18.081 32.45 14.854 0 22.592-25.743 18.723-57.793-3.869-32.049-11.062-84.285-11.062-84.285l.383-.446c7.052-8.22 12.444-17.728 15.878-28l4.236-6.716c.661-1.049.429-2.428-.539-3.203-.791-.632-1.89-.71-2.762-.195l-4.352 2.572c-1.175.694-2.191 1.626-2.983 2.738l-5.677 7.964 3.476-32.695c.156-1.464-.828-2.806-2.27-3.098-1.528-.309-3.021.664-3.354 2.186l-5.057 23.072-1.982-27.572c-.114-1.589-1.436-2.82-3.029-2.82-1.611 0-2.942 1.259-3.032 2.867l-1.546 27.525-5.781-21.15c-.407-1.49-1.915-2.395-3.421-2.053-1.523.346-2.497 1.829-2.198 3.361 1.306 6.714 4.512 23.382 3.96 22.553-.518-.776-3.452-7.817-4.893-11.306-.459-1.11-1.668-1.709-2.828-1.399-1.251.334-2.008 1.605-1.705 2.865l6.088 25.27 2.647 16.626s-5.001 96.279-5.001 110.682z" fill="#ffb391" fill-rule="evenodd"/><path d="m200.91 247.42s-14.79 7.547-14.79 13.558" stroke="#fff" stroke-linecap="round" stroke-width="1.23249"/><path d="m175.027 241.257s8.919-5.198 22.185-3.088" stroke="#fff" stroke-linecap="round" stroke-width="1.23249"/><path d="m377.895 380.958s-4.856 31.785-10.681 34.943" stroke="#fff" stroke-linecap="round" stroke-width="1.23249"/><path clip-rule="evenodd" d="m530.909 292.913c.165-2.148-1.533-3.982-3.687-3.982h-174.389c-1.932 0-3.538 1.487-3.687 3.413l-8.658 112.156c-.166 2.148 1.532 3.982 3.686 3.982h174.39c1.931 0 3.538-1.487 3.686-3.412z" fill="#18233d" fill-rule="evenodd"/><path clip-rule="evenodd" d="m533.374 292.913c.166-2.148-1.532-3.982-3.686-3.982h-174.39c-1.931 0-3.537 1.487-3.686 3.413l-8.658 112.156c-.166 2.148 1.532 3.982 3.686 3.982h174.389c1.932 0 3.538-1.487 3.687-3.412z" fill="#fafbff" fill-rule="evenodd"/><path clip-rule="evenodd" d="m419.609 370.275-16.572 38.207h64.09l-7.129-35.498z" fill="#58627a" fill-rule="evenodd" opacity=".3"/><path clip-rule="evenodd" d="m419.06 370.275h46.171l10.523 77.647h-46.17zm17.519 35.819c0 5.09 4.072 9.217 9.095 9.217 5.022 0 9.094-4.127 9.094-9.217s-4.072-9.216-9.094-9.216c-5.023 0-9.095 4.126-9.095 9.216z" fill="#18233d" fill-rule="evenodd"/><path clip-rule="evenodd" d="m421.525 370.275h46.524l11.403 80.112h-46.524zm18.779 35.884c0 5.051 4.103 9.146 9.164 9.146s9.164-4.095 9.164-9.146c0-5.052-4.103-9.147-9.164-9.147s-9.164 4.095-9.164 9.147z" fill="#e5e9f3" fill-rule="evenodd"/><g stroke-linecap="round" stroke-width="1.23249"><path d="m171.795 236.216c-1.811-8.9-9.638-15.294-18.72-15.294h-104.2371l27.2845 131.477 119.0426-1.34z" fill="#fff" stroke="#18233d"/><path d="m108.536 263.069 52.975.208" stroke="#18233d"/><path d="m97.8735 270.464 65.2995.208" stroke="#18233d"/><path d="m112.362 286.487 52.975.208" stroke="#18233d"/><path d="m138.672 293.882 28.325.208" stroke="#18233d"/><path d="m118.794 312.369 52.974.208" stroke="#18233d"/><path d="m151.266 319.764 22.163.208" stroke="#18233d"/></g><path clip-rule="evenodd" d="m69.4595 259.746h12.3248l2.0383 12.324h-12.3249z" fill="#0acc94" fill-rule="evenodd"/><path clip-rule="evenodd" d="m75.623 284.395h12.3249l2.0382 12.324h-12.3248z" fill="#0acc94" fill-rule="evenodd"/><path clip-rule="evenodd" d="m81.7839 309.045h12.3249l2.0382 12.325h-12.3248z" fill="#0acc94" fill-rule="evenodd"/><path clip-rule="evenodd" d="m152.842 220.306c-8.54 0-15.662 6.531-16.4 15.04l-.458 5.296h-110.3228c-3.7403-9.816 3.5091-20.336 14.0133-20.336z" fill="#4385ff" fill-rule="evenodd"/><rect fill="#fff" height="224.313" rx="9.24365" stroke="#18233d" stroke-linecap="round" stroke-width="1.23249" width="352.491" x="393.793" y="55.7691"/><g mask="url(#c)"><path d="m522.588 98.2896h195.965v158.991h-195.965z" fill="#e5e9f3"/><path d="m383.318 55.1528h378.374v23.4173h-378.374z" fill="#a6b7c5"/><g clip-rule="evenodd" fill-rule="evenodd"><path d="m405.502 71.1752c2.042 0 3.697-1.6554 3.697-3.6975 0-2.042-1.655-3.6974-3.697-3.6974s-3.698 1.6554-3.698 3.6974c0 2.0421 1.656 3.6975 3.698 3.6975z" fill="#fff"/><path d="m417.827 71.1752c2.042 0 3.698-1.6554 3.698-3.6975 0-2.042-1.656-3.6974-3.698-3.6974s-3.697 1.6554-3.697 3.6974c0 2.0421 1.655 3.6975 3.697 3.6975z" fill="#ffd1ab"/><path d="m430.152 71.1752c2.042 0 3.698-1.6554 3.698-3.6975 0-2.042-1.656-3.6974-3.698-3.6974s-3.697 1.6554-3.697 3.6974c0 2.0421 1.655 3.6975 3.697 3.6975z" fill="#0acc94"/></g></g><path clip-rule="evenodd" d="m596.496 116.809s-25.126 4.817-40.032 9.985c-14.906 5.167-58.526 52.203-58.526 52.203l27.047 25.681 22.232-13.086s4.357 55.693 22.376 64.234l91.247.617c10.926-7.397 23.515-73.142 23.515-73.142l24.658 17.68 15.896-42.377s-38.232-30.794-45.58-31.81c-7.348-1.017-63.498-14.228-63.498-14.228z" fill="#18233d" fill-rule="evenodd"/><path d="m589.163 115.809s-8.039 25.285 13.84 27.916c21.88 2.632 46.257-25.321 46.257-25.321" stroke="#e5e9f3" stroke-width="1.23249"/><path d="m684.165 184.504s-12.532-12.495-16.947-20.893" stroke="#e5e9f3" stroke-width="1.23249"/><path clip-rule="evenodd" d="m629.07 71.4854s14.314-27.6039-1.047-33.8055c-.56-13.2069-12.803-14.7715-27.079-13.2787-14.276 1.4927-29.544 6.8635-24.388 16.0922 5.157 9.2287-7.801 10.0618 3.982 19.1826 11.784 9.1209 44.696 16.1881 44.696 16.1881z" fill="#242f40" fill-rule="evenodd"/><path clip-rule="evenodd" d="m626.082 78.7962s-3.457 19.9781 8.54 40.8798c0 0-12.819 15.421-28.225 15.421s-7.328-15.421-7.328-15.421l-.735-35.486z" fill="#d18d5c" fill-rule="evenodd"/><path clip-rule="evenodd" d="m598.741 84.0584.392 23.7796c14.705-6.778 24.383-19.7528 26.988-29.1017z" fill="#c28552" fill-rule="evenodd"/><path clip-rule="evenodd" d="m581.974 55.454s-2.77 41.13 10.454 44.708 32.249-18.2899 34.441-21.2818c0 0 9.229 1.266 11.493-4.2312 2.264-5.4971-1.348-10.8199-10.881-8.9667-1.445.2807-3.67 9.9375-5.611 9.8445-1.999-.0958-1.673-10.3543-3.966-10.8318-9.857.5932-1.736-14.3041-4.288-17.6617-3.435-4.5187-12.125.8724-20.989.9335-8.125-.8376-10.653 7.4872-10.653 7.4872z" fill="#d18d5c" fill-rule="evenodd"/><path clip-rule="evenodd" d="m583.53 86.0245s1.258 5.5052 10.421 3.9251c9.164-1.5801 8.879-9.8054 16.78-8.972s9.899-7.4132 9.899-7.4132l5.05-4.5091s-1.02 6.7444-1.243 9.9523c-.224 3.2079-8.907 15.9478-23.184 22.0754-5.076 2.178-12.933.87-15.981-2.0944-2.668-2.5942-1.742-12.9641-1.742-12.9641z" fill="#242f40" fill-rule="evenodd"/><path clip-rule="evenodd" d="m595.663 81.7569-8.774-.3089s.105 3.7731 3.613 3.8966c3.508.1236 5.161-3.5877 5.161-3.5877z" fill="#d89762" fill-rule="evenodd"/><path d="m633.675 71.2821-4.99 2.5929" stroke="#18233d" stroke-linecap="round" stroke-width="1.23249"/><path clip-rule="evenodd" d="m701.527 196.387s12.488 19.659 31.521 17.276c19.032-2.382 20.125-43.194 11.225-50.813-8.901-7.618-22.574-20.134-36.465-10.575-13.892 9.559-6.281 44.112-6.281 44.112z" fill="#85a9ff" fill-rule="evenodd"/><path clip-rule="evenodd" d="m747.814 179.844c-1.505 14.325-6.6 31.935-21.373 30.382s-19.778-27.964-12.58-59.433c7.198-31.47 19.811-82.6673 19.811-82.6673l-.334-.4835c-6.154-8.9117-10.523-18.9321-12.864-29.5066l-3.51-7.1218c-.549-1.1125-.174-2.4593.87-3.1287.852-.5465 1.954-.5089 2.767.0945l4.06 3.0124c1.096.8131 2.009 1.8469 2.68 3.0347l4.814 8.5146-.04-32.8793c-.002-1.47213 1.116-2.70396 2.582-2.84391 1.551-.14814 2.934.9756 3.107 2.52428l2.617 23.47413 4.853-27.2139c.28-1.568 1.723-2.65357 3.307-2.48709 1.603.1684 2.795 1.55864 2.716 3.16779l-1.339 27.5356 7.96-20.4297c.56-1.4391 2.155-2.1814 3.617-1.684 1.478.5028 2.292 2.0794 1.835 3.5723-2.002 6.5408-6.932 22.7827-6.296 22.0157.596-.7183 4.249-7.4141 6.048-10.7329.572-1.0556 1.837-1.5252 2.958-1.096 1.21.4632 1.829 1.8068 1.396 3.0276l-8.695 24.4956-4.371 16.2585s-5.09 96.274-6.596 110.598z" fill="#d18d5c" fill-rule="evenodd"/><path d="m732.782 41.1118s13.92 9.0508 13.292 15.029" stroke="#fff" stroke-linecap="round" stroke-width="1.23249"/><path d="m759.169 37.6889s-8.327-6.102-21.741-5.3903" stroke="#fff" stroke-linecap="round" stroke-width="1.23249"/><path d="m653.848 249.27h-77.03c-4.217 0-7.673 3.258-7.988 7.395h85.018z" fill="#fff" stroke="#18233d" stroke-linecap="round" stroke-width="1.23249"/><path d="m593.326 256.665-17.906-92.436h-143.363l-2.135 3.202 19.674 85.549 141.243 3.685h.008z" fill="#fff" stroke="#18233d" stroke-linecap="round" stroke-width="1.23249"/><path clip-rule="evenodd" d="m573.464 167.31h-144.201l17.376 89.972h144.201z" fill="#17dc89" fill-rule="evenodd"/><path clip-rule="evenodd" d="m508.877 219.074c-3.743 0-6.778-3.034-6.778-6.778s3.035-6.779 6.778-6.779c3.744 0 6.779 3.035 6.779 6.779s-3.035 6.778-6.779 6.778z" fill="#fff" fill-rule="evenodd"/></svg>